<mxfile host="65bd71144e">
    <diagram id="AFgjA1erfG09atbLGRsA" name="Page-1">
        <mxGraphModel dx="924" dy="438" grid="1" gridSize="10" guides="1" tooltips="1" connect="1" arrows="1" fold="1" page="1" pageScale="1" pageWidth="827" pageHeight="1169" background="none" math="0" shadow="0">
            <root>
                <mxCell id="0"/>
                <mxCell id="1" parent="0"/>
                <mxCell id="2" value="" style="endArrow=block;dashed=1;html=1;dashPattern=8 8;strokeWidth=2;jumpStyle=none;rounded=1;strokeColor=#000000;startSize=1;endSize=6;targetPerimeterSpacing=1;sourcePerimeterSpacing=1;align=center;fontColor=#000000;fontSize=15;" parent="1" edge="1">
                    <mxGeometry width="50" height="50" relative="1" as="geometry">
                        <mxPoint x="40" y="320" as="sourcePoint"/>
                        <mxPoint x="680" y="320" as="targetPoint"/>
                    </mxGeometry>
                </mxCell>
                <mxCell id="27" value="INPUT CYCLE" style="edgeLabel;html=1;align=center;verticalAlign=middle;resizable=0;points=[];fontSize=15;fontColor=#000000;" parent="2" vertex="1" connectable="0">
                    <mxGeometry x="0.0065" relative="1" as="geometry">
                        <mxPoint as="offset"/>
                    </mxGeometry>
                </mxCell>
                <mxCell id="3" value="" style="endArrow=block;dashed=1;html=1;dashPattern=8 8;strokeWidth=2;jumpStyle=none;rounded=1;strokeColor=#000000;startSize=1;endSize=6;targetPerimeterSpacing=1;sourcePerimeterSpacing=1;labelBorderColor=none;labelBackgroundColor=default;fontColor=#000000;fontSize=15;" parent="1" edge="1">
                    <mxGeometry width="50" height="50" relative="1" as="geometry">
                        <mxPoint x="40" y="360" as="sourcePoint"/>
                        <mxPoint x="760" y="360" as="targetPoint"/>
                    </mxGeometry>
                </mxCell>
                <mxCell id="28" value="ACTUAL CYCLE" style="edgeLabel;html=1;align=center;verticalAlign=middle;resizable=0;points=[];fontSize=15;fontColor=#000000;" parent="3" vertex="1" connectable="0">
                    <mxGeometry x="0.0437" relative="1" as="geometry">
                        <mxPoint as="offset"/>
                    </mxGeometry>
                </mxCell>
                <mxCell id="9" value="" style="shape=curlyBracket;whiteSpace=wrap;html=1;rounded=1;labelPosition=left;verticalLabelPosition=middle;align=right;verticalAlign=middle;rotation=90;fontColor=#000000;strokeColor=#000000;strokeWidth=2;" parent="1" vertex="1">
                    <mxGeometry x="350.18" y="-60.209999999999994" width="20" height="638.43" as="geometry"/>
                </mxCell>
                <mxCell id="16" value="&lt;font style=&quot;font-size: 15px;&quot;&gt;r&lt;sub style=&quot;font-size: 15px;&quot;&gt;t&lt;/sub&gt;&lt;/font&gt;" style="shape=crossbar;whiteSpace=wrap;html=1;rounded=1;labelBorderColor=none;labelBackgroundColor=default;fontColor=#000000;strokeColor=#000000;strokeWidth=2;fontSize=15;" parent="1" vertex="1">
                    <mxGeometry x="680" y="379" width="80" height="20" as="geometry"/>
                </mxCell>
                <mxCell id="19" value="&lt;font style=&quot;font-size: 15px;&quot;&gt;t&lt;sub style=&quot;font-size: 15px;&quot;&gt;sleep&lt;/sub&gt;&lt;/font&gt;" style="shape=crossbar;whiteSpace=wrap;html=1;rounded=1;labelBorderColor=none;labelBackgroundColor=default;fontColor=#000000;strokeColor=#000000;strokeWidth=2;fontSize=15;" parent="1" vertex="1">
                    <mxGeometry x="40" y="280" width="560" height="20" as="geometry"/>
                </mxCell>
                <mxCell id="20" value="&lt;font style=&quot;font-size: 15px;&quot;&gt;t&lt;sub style=&quot;font-size: 15px;&quot;&gt;burst&lt;/sub&gt;&lt;/font&gt;" style="shape=crossbar;whiteSpace=wrap;html=1;rounded=1;labelBorderColor=none;labelBackgroundColor=default;fontColor=#000000;strokeColor=#000000;strokeWidth=2;fontSize=15;" parent="1" vertex="1">
                    <mxGeometry x="600" y="280" width="80" height="20" as="geometry"/>
                </mxCell>
                <mxCell id="21" value="&lt;font style=&quot;font-size: 16px;&quot;&gt;t&lt;sub style=&quot;font-size: 16px;&quot;&gt;cycle&lt;/sub&gt;&lt;/font&gt;" style="text;html=1;align=center;verticalAlign=middle;resizable=0;points=[];autosize=1;strokeColor=none;fillColor=none;fontSize=16;rounded=1;fontColor=#000000;" parent="1" vertex="1">
                    <mxGeometry x="330.18" y="214" width="60" height="40" as="geometry"/>
                </mxCell>
                <mxCell id="23" value="&lt;font style=&quot;font-size: 16px;&quot;&gt;&lt;font style=&quot;font-size: 16px;&quot;&gt;t&lt;/font&gt;&lt;sup style=&quot;font-size: 16px;&quot;&gt;*&lt;/sup&gt;&lt;sub style=&quot;font-size: 16px;&quot;&gt;cycle&lt;/sub&gt;&lt;/font&gt;" style="text;html=1;align=center;verticalAlign=middle;resizable=0;points=[];autosize=1;strokeColor=none;fillColor=none;fontSize=16;rounded=1;fontColor=#000000;" parent="1" vertex="1">
                    <mxGeometry x="365.95" y="420" width="70" height="40" as="geometry"/>
                </mxCell>
                <mxCell id="24" value="&lt;font style=&quot;font-size: 15px;&quot;&gt;t&lt;sub style=&quot;font-size: 15px;&quot;&gt;sleep&lt;/sub&gt;&lt;/font&gt;" style="shape=crossbar;whiteSpace=wrap;html=1;rounded=1;labelBorderColor=none;labelBackgroundColor=default;fontColor=#000000;strokeColor=#000000;strokeWidth=2;fontSize=15;" parent="1" vertex="1">
                    <mxGeometry x="40" y="379" width="560" height="20" as="geometry"/>
                </mxCell>
                <mxCell id="25" value="&lt;font style=&quot;font-size: 15px;&quot;&gt;t&lt;sub style=&quot;font-size: 15px;&quot;&gt;burst&lt;/sub&gt;&lt;/font&gt;" style="shape=crossbar;whiteSpace=wrap;html=1;rounded=1;labelBorderColor=none;labelBackgroundColor=default;fontColor=#000000;strokeColor=#000000;strokeWidth=2;fontSize=15;" parent="1" vertex="1">
                    <mxGeometry x="600" y="379" width="80" height="20" as="geometry"/>
                </mxCell>
                <mxCell id="26" value="" style="shape=curlyBracket;whiteSpace=wrap;html=1;rounded=1;labelPosition=left;verticalLabelPosition=middle;align=right;verticalAlign=middle;labelBackgroundColor=none;labelBorderColor=none;strokeColor=#000000;fontSize=16;fontColor=#000000;rotation=-90;strokeWidth=2;" parent="1" vertex="1">
                    <mxGeometry x="390.95" y="58.06" width="20" height="721.88" as="geometry"/>
                </mxCell>
            </root>
        </mxGraphModel>
    </diagram>
</mxfile>